<svg xmlns="http://www.w3.org/2000/svg" viewBox="0 0 76 70" width="76" height="70" role="img" aria-label="Squirreling · Sightings squirrel">
  <path d="M50 42 C 70 44, 76 22, 64 8 C 52 -2, 38 6, 38 22 C 38 28, 42 32, 46 32" fill="#B07050"/>
  <path d="M52 38 C 64 38, 68 24, 60 14 C 52 6, 44 12, 46 22" fill="#8C5535"/>
  <ellipse cx="32" cy="48" rx="14" ry="16" fill="#B07050"/>
  <ellipse cx="28" cy="52" rx="6" ry="10" fill="#F0D8B0"/>
  <circle cx="24" cy="28" r="11" fill="#B07050"/>
  <path d="M17 18 L19 12 L24 19 Z" fill="#8C5535"/>
  <circle cx="20" cy="27" r="1.8" fill="#1A1A1A"/>
  <circle cx="14" cy="29" r="1.2" fill="#1A1A1A"/>
  <ellipse cx="22" cy="44" rx="3.5" ry="2.5" fill="#8C5535"/>
</svg>
