<svg xmlns="http://www.w3.org/2000/svg" viewBox="0 0 50 64" width="50" height="64" role="img" aria-label="Squirreling · Sightings">
  <rect x="23" y="2" width="4" height="6" rx="1" fill="#3A5928"/>
  <path d="M27 6 Q 33 4, 34 9 Q 30 11, 27 8 Z" fill="#5C8A4A"/>
  <path d="M10 24 Q 10 12, 25 12 Q 40 12, 40 24 L 40 26 L 10 26 Z" fill="#3A3F48"/>
  <rect x="10" y="24" width="30" height="3" fill="#1A1A1A"/>
  <circle cx="25" cy="22" r="6" fill="#1A1A1A"/>
  <circle cx="25" cy="22" r="4.2" fill="#4A4F58"/>
  <circle cx="25" cy="22" r="2.4" fill="#3585B0"/>
  <circle cx="26" cy="21" r="0.9" fill="#FFFFFF"/>
  <path d="M10 27 Q 10 56, 25 60 Q 40 56, 40 27 Z" fill="#C0935A"/>
  <path d="M14 27 Q 14 52, 24 58 L 24 27 Z" fill="#D4A574" opacity="0.5"/>
</svg>
