<svg xmlns="http://www.w3.org/2000/svg" viewBox="0 0 80 70" width="80" height="70" role="img" aria-label="Squirreling · Sightings">
  <path d="M50 42 C 70 44, 76 22, 64 8 C 52 -2, 38 6, 38 22 C 38 28, 42 32, 46 32" fill="#A05E3A"/>
  <path d="M52 38 C 64 38, 68 24, 60 14 C 52 6, 44 12, 46 22" fill="#7A4220"/>
  <ellipse cx="32" cy="48" rx="14" ry="16" fill="#A05E3A"/>
  <ellipse cx="28" cy="52" rx="6" ry="10" fill="#E8CC9C"/>
  <circle cx="24" cy="28" r="11" fill="#A05E3A"/>
  <path d="M17 18 L19 12 L24 19 Z" fill="#7A4220"/>
  <circle cx="20" cy="27" r="1.8" fill="#1A1A1A"/>
  <circle cx="14" cy="29" r="1.2" fill="#1A1A1A"/>
  <ellipse cx="22" cy="44" rx="3.5" ry="2.5" fill="#7A4220"/>
  <circle cx="58" cy="22" r="4.5" fill="#1A1A1A"/>
  <circle cx="58" cy="22" r="3" fill="#3A3F48"/>
  <circle cx="58" cy="22" r="1.6" fill="#3585B0"/>
  <circle cx="58.7" cy="21.3" r="0.6" fill="#FFFFFF"/>
</svg>
